{
  "asset": {
    "version": "2.0",
    "generator": "Sketchup glTF Exporter"
  },
  "scene": 0,
  "scenes": [
    {
      "nodes": [
        0
      ]
    }
  ],
  "nodes": [
    {
      "name": "root",
      "children": [
        1
      ]
    },
    {
      "name": "Lisanne",
      "mesh": 0
    }
  ],
  "materials": [
    {
      "pbrMetallicRoughness": {
        "baseColorFactor": [
          0.9922,
          0.6941,
          0.0353,
          1.0
        ],
        "metallicFactor": 0.0
      },
      "name": "Lisanne_Tools",
      "doubleSided": true
    },
    {
      "pbrMetallicRoughness": {
        "baseColorFactor": [
          1.0,
          1.0,
          1.0,
          1.0
        ],
        "metallicFactor": 0.0
      },
      "name": "Lisanne_Caulk",
      "doubleSided": true
    },
    {
      "pbrMetallicRoughness": {
        "baseColorFactor": [
          0.8706,
          0.0706,
          0.1333,
          1.0
        ],
        "metallicFactor": 0.0
      },
      "name": "Lisanne_Bandana",
      "doubleSided": true
    },
    {
      "pbrMetallicRoughness": {
        "baseColorFactor": [
          0.7647,
          0.6196,
          0.502,
          1.0
        ],
        "metallicFactor": 0.0
      },
      "name": "Lisanne_Skin",
      "doubleSided": true
    },
    {
      "pbrMetallicRoughness": {
        "baseColorFactor": [
          0.4627,
          0.3137,
          0.2275,
          1.0
        ],
        "metallicFactor": 0.0
      },
      "name": "Lisanne_Hair",
      "doubleSided": true
    },
    {
      "pbrMetallicRoughness": {
        "baseColorFactor": [
          0.7647,
          0.7647,
          0.7647,
          1.0
        ],
        "metallicFactor": 0.85
      },
      "name": "Lisanne_Metal",
      "doubleSided": true
    },
    {
      "pbrMetallicRoughness": {
        "baseColorFactor": [
          0.9059,
          0.9098,
          0.8863,
          1.0
        ],
        "metallicFactor": 0.0
      },
      "name": "Lisanne_Boots",
      "doubleSided": true
    },
    {
      "pbrMetallicRoughness": {
        "baseColorFactor": [
          0.7922,
          0.7961,
          0.7765,
          1.0
        ],
        "metallicFactor": 0.0
      },
      "name": "Lisanne_Overalls",
      "doubleSided": true
    },
    {
      "pbrMetallicRoughness": {
        "baseColorFactor": [
          0.3608,
          0.3137,
          0.3098,
          1.0
        ],
        "metallicFactor": 0.0
      },
      "name": "Lisanne_Bracelet",
      "doubleSided": true
    },
    {
      "pbrMetallicRoughness": {
        "baseColorFactor": [
          0.6196,
          0.4588,
          0.3255,
          1.0
        ],
        "metallicFactor": 0.0
      },
      "name": "Lisanne_Boot_Sole_01",
      "doubleSided": true
    },
    {
      "pbrMetallicRoughness": {
        "baseColorFactor": [
          0.0941,
          0.098,
          0.1137,
          1.0
        ],
        "metallicFactor": 0.0
      },
      "name": "Lisanne_Tool_Bag_01",
      "doubleSided": true
    },
    {
      "pbrMetallicRoughness": {
        "baseColorFactor": [
          0.2392,
          0.3647,
          0.149,
          1.0
        ],
        "metallicFactor": 0.0
      },
      "name": "Lisanne_Tool_Bag_03",
      "doubleSided": true
    },
    {
      "pbrMetallicRoughness": {
        "baseColorFactor": [
          0.9804,
          0.7176,
          0.6745,
          1.0
        ],
        "metallicFactor": 0.0
      },
      "name": "Lisanne_Eraser",
      "doubleSided": true
    },
    {
      "pbrMetallicRoughness": {
        "baseColorFactor": [
          0.0118,
          0.1765,
          0.451,
          1.0
        ],
        "metallicFactor": 0.0
      },
      "name": "Lisanne_Caulkgun",
      "doubleSided": true
    },
    {
      "pbrMetallicRoughness": {
        "baseColorFactor": [
          0.5059,
          0.3529,
          0.1373,
          1.0
        ],
        "metallicFactor": 0.85
      },
      "name": "Lisanne_Brush_Metal",
      "doubleSided": true
    },
    {
      "pbrMetallicRoughness": {
        "baseColorFactor": [
          0.8039,
          0.7686,
          0.7255,
          1.0
        ],
        "metallicFactor": 0.0
      },
      "name": "Lisanne_Brush",
      "doubleSided": true
    },
    {
      "pbrMetallicRoughness": {
        "baseColorFactor": [
          0.1412,
          0.2824,
          0.3686,
          1.0
        ],
        "metallicFactor": 0.0
      },
      "name": "Lisanne_Shirt_Blue",
      "doubleSided": true
    },
    {
      "pbrMetallicRoughness": {
        "baseColorFactor": [
          0.2353,
          0.251,
          0.2745,
          1.0
        ],
        "metallicFactor": 0.0
      },
      "name": "Lisanne_Hammer",
      "doubleSided": true
    },
    {
      "pbrMetallicRoughness": {
        "baseColorFactor": [
          0.1569,
          0.1098,
          0.0627,
          1.0
        ],
        "metallicFactor": 0.0
      },
      "name": "Lisanne_Boot_Sole_02",
      "doubleSided": true
    },
    {
      "pbrMetallicRoughness": {
        "baseColorFactor": [
          0.1569,
          0.1529,
          0.2078,
          1.0
        ],
        "metallicFactor": 0.0
      },
      "name": "Lisanne_Tool_Bag_02",
      "doubleSided": true
    },
    {
      "pbrMetallicRoughness": {
        "baseColorFactor": [
          0.1843,
          0.0,
          0.0353,
          1.0
        ],
        "metallicFactor": 0.0
      },
      "name": "Lisanne_Watch",
      "doubleSided": true
    },
    {
      "pbrMetallicRoughness": {
        "baseColorFactor": [
          0.4039,
          0.0,
          0.0392,
          1.0
        ],
        "metallicFactor": 0.0
      },
      "name": "Lisanne_Brush_Handle",
      "doubleSided": true
    },
    {
      "pbrMetallicRoughness": {
        "baseColorFactor": [
          0.7569,
          0.7137,
          0.4667,
          1.0
        ],
        "metallicFactor": 0.0
      },
      "name": "Lisanne_Necklace",
      "doubleSided": true
    }
  ],
  "meshes": [
    {
      "primitives": [
        {
          "attributes": {
            "POSITION": 0,
            "NORMAL": 1
          },
          "indices": 2,
          "mode": 4,
          "material": 0
        },
        {
          "attributes": {
            "POSITION": 0,
            "NORMAL": 1
          },
          "indices": 3,
          "mode": 4,
          "material": 1
        },
        {
          "attributes": {
            "POSITION": 0,
            "NORMAL": 1
          },
          "indices": 4,
          "mode": 4,
          "material": 2
        },
        {
          "attributes": {
            "POSITION": 0,
            "NORMAL": 1
          },
          "indices": 5,
          "mode": 4,
          "material": 3
        },
        {
          "attributes": {
            "POSITION": 0,
            "NORMAL": 1
          },
          "indices": 6,
          "mode": 4,
          "material": 4
        },
        {
          "attributes": {
            "POSITION": 0,
            "NORMAL": 1
          },
          "indices": 7,
          "mode": 4,
          "material": 5
        },
        {
          "attributes": {
            "POSITION": 0,
            "NORMAL": 1
          },
          "indices": 8,
          "mode": 4,
          "material": 6
        },
        {
          "attributes": {
            "POSITION": 0,
            "NORMAL": 1
          },
          "indices": 9,
          "mode": 4,
          "material": 7
        },
        {
          "attributes": {
            "POSITION": 0,
            "NORMAL": 1
          },
          "indices": 10,
          "mode": 4,
          "material": 8
        },
        {
          "attributes": {
            "POSITION": 0,
            "NORMAL": 1
          },
          "indices": 11,
          "mode": 4,
          "material": 9
        },
        {
          "attributes": {
            "POSITION": 0,
            "NORMAL": 1
          },
          "indices": 12,
          "mode": 4,
          "material": 10
        },
        {
          "attributes": {
            "POSITION": 0,
            "NORMAL": 1
          },
          "indices": 13,
          "mode": 4,
          "material": 11
        },
        {
          "attributes": {
            "POSITION": 0,
            "NORMAL": 1
          },
          "indices": 14,
          "mode": 4,
          "material": 12
        },
        {
          "attributes": {
            "POSITION": 0,
            "NORMAL": 1
          },
          "indices": 15,
          "mode": 4,
          "material": 13
        },
        {
          "attributes": {
            "POSITION": 0,
            "NORMAL": 1
          },
          "indices": 16,
          "mode": 4,
          "material": 14
        },
        {
          "attributes": {
            "POSITION": 0,
            "NORMAL": 1
          },
          "indices": 17,
          "mode": 4,
          "material": 15
        },
        {
          "attributes": {
            "POSITION": 0,
            "NORMAL": 1
          },
          "indices": 18,
          "mode": 4,
          "material": 16
        },
        {
          "attributes": {
            "POSITION": 0,
            "NORMAL": 1
          },
          "indices": 19,
          "mode": 4,
          "material": 17
        },
        {
          "attributes": {
            "POSITION": 0,
            "NORMAL": 1
          },
          "indices": 20,
          "mode": 4,
          "material": 18
        },
        {
          "attributes": {
            "POSITION": 0,
            "NORMAL": 1
          },
          "indices": 21,
          "mode": 4,
          "material": 19
        },
        {
          "attributes": {
            "POSITION": 0,
            "NORMAL": 1
          },
          "indices": 22,
          "mode": 4,
          "material": 20
        },
        {
          "attributes": {
            "POSITION": 0,
            "NORMAL": 1
          },
          "indices": 23,
          "mode": 4,
          "material": 21
        },
        {
          "attributes": {
            "POSITION": 0,
            "NORMAL": 1
          },
          "indices": 24,
          "mode": 4,
          "material": 22
        }
      ]
    }
  ],
  "accessors": [
    {
      "bufferView": 0,
      "componentType": 5126,
      "count": 1267,
      "type": "VEC3",
      "min": [
        -0.78,
        -0.01,
        0.07
      ],
      "max": [
        -0.04,
        1.71,
        0.57
      ]
    },
    {
      "bufferView": 1,
      "componentType": 5126,
      "count": 1267,
      "type": "VEC3",
      "min": [
        -0.57,
        -0.02,
        -0.85
      ],
      "max": [
        -0.54,
        0.02,
        -0.82
      ]
    },
    {
      "bufferView": 2,
      "componentType": 5123,
      "count": 216,
      "type": "SCALAR"
    },
    {
      "bufferView": 2,
      "componentType": 5123,
      "count": 318,
      "type": "SCALAR",
      "byteOffset": 432
    },
    {
      "bufferView": 2,
      "componentType": 5123,
      "count": 198,
      "type": "SCALAR",
      "byteOffset": 1068
    },
    {
      "bufferView": 2,
      "componentType": 5123,
      "count": 666,
      "type": "SCALAR",
      "byteOffset": 1464
    },
    {
      "bufferView": 2,
      "componentType": 5123,
      "count": 222,
      "type": "SCALAR",
      "byteOffset": 2796
    },
    {
      "bufferView": 2,
      "componentType": 5123,
      "count": 105,
      "type": "SCALAR",
      "byteOffset": 3240
    },
    {
      "bufferView": 2,
      "componentType": 5123,
      "count": 156,
      "type": "SCALAR",
      "byteOffset": 3450
    },
    {
      "bufferView": 2,
      "componentType": 5123,
      "count": 753,
      "type": "SCALAR",
      "byteOffset": 3762
    },
    {
      "bufferView": 2,
      "componentType": 5123,
      "count": 96,
      "type": "SCALAR",
      "byteOffset": 5268
    },
    {
      "bufferView": 2,
      "componentType": 5123,
      "count": 138,
      "type": "SCALAR",
      "byteOffset": 5460
    },
    {
      "bufferView": 2,
      "componentType": 5123,
      "count": 33,
      "type": "SCALAR",
      "byteOffset": 5736
    },
    {
      "bufferView": 2,
      "componentType": 5123,
      "count": 144,
      "type": "SCALAR",
      "byteOffset": 5802
    },
    {
      "bufferView": 2,
      "componentType": 5123,
      "count": 27,
      "type": "SCALAR",
      "byteOffset": 6090
    },
    {
      "bufferView": 2,
      "componentType": 5123,
      "count": 231,
      "type": "SCALAR",
      "byteOffset": 6144
    },
    {
      "bufferView": 2,
      "componentType": 5123,
      "count": 42,
      "type": "SCALAR",
      "byteOffset": 6606
    },
    {
      "bufferView": 2,
      "componentType": 5123,
      "count": 72,
      "type": "SCALAR",
      "byteOffset": 6690
    },
    {
      "bufferView": 2,
      "componentType": 5123,
      "count": 246,
      "type": "SCALAR",
      "byteOffset": 6834
    },
    {
      "bufferView": 2,
      "componentType": 5123,
      "count": 78,
      "type": "SCALAR",
      "byteOffset": 7326
    },
    {
      "bufferView": 2,
      "componentType": 5123,
      "count": 57,
      "type": "SCALAR",
      "byteOffset": 7482
    },
    {
      "bufferView": 2,
      "componentType": 5123,
      "count": 132,
      "type": "SCALAR",
      "byteOffset": 7596
    },
    {
      "bufferView": 2,
      "componentType": 5123,
      "count": 15,
      "type": "SCALAR",
      "byteOffset": 7860
    },
    {
      "bufferView": 2,
      "componentType": 5123,
      "count": 21,
      "type": "SCALAR",
      "byteOffset": 7890
    },
    {
      "bufferView": 2,
      "componentType": 5123,
      "count": 45,
      "type": "SCALAR",
      "byteOffset": 7932
    }
  ],
  "bufferViews": [
    {
      "buffer": 0,
      "byteLength": 15204,
      "target": 34962,
      "byteStride": 12
    },
    {
      "buffer": 0,
      "byteOffset": 15204,
      "byteLength": 15204,
      "target": 34962,
      "byteStride": 12
    },
    {
      "buffer": 0,
      "byteOffset": 30408,
      "byteLength": 8022,
      "target": 34963
    }
  ],
  "buffers": [
    {
      "uri": "data:application/octet-stream;base64,",
      "byteLength": 38430
    }
  ]
}